<?xml version="1.0"?>
<svg xmlns:rdf="http://www.w3.org/1999/02/22-rdf-syntax-ns#" xmlns="http://www.w3.org/2000/svg" xmlns:cc="http://creativecommons.org/ns#" xmlns:xlink="http://www.w3.org/1999/xlink" xmlns:dc="http://purl.org/dc/elements/1.1/" xmlns:svg="http://www.w3.org/2000/svg" id="svg2" viewBox="0 0 1185.8 1018.9" version="1.1">
  <g id="layer1" transform="translate(-487.06 361.25)">
    <rect id="rect3232" height="1014.6" width="1181.4" stroke="#ff9" y="-359.06" x="489.25" stroke-width="4.398" fill="#ff9"/>
    <path id="path3203" d="m1562.2-134.06c-10.939 35.833-86.647 14.28-108.85-11.93-38.45-41.627-98.269-30.445-148.8-33.634-32.322 2.4171-72.429-18.816-99.492 6.054-24.345 33.451 23.391 43.218 47.646 43.494 27.427 8.7776 86.795-13.356 95.102 21.447-42.733 6.3886-87.8-1.7619-131.4 0.4703-26.047 4.1143-65.3-10.071-78.463 21.106-1.391 47.498 67.747 24.313 98.127 30.543 33.829 6.72 85.246-12.224 107.46 16.658-29.387 22.283-82.414 5.8512-120.35 12.036-42.959 2.9614-92.071-12.725-130.52 11.792-19.888 56.186 64.842 40.294 97.465 43.706 49.262 1.7846 99.403-2.6107 148.05 5.4504 23.763 38.871-55.833 16.016-75.861 22.116-34.631-0.77461-69.253-4.942-101.59-1.9905-21.02-8.9354-72.145 17.45-39.081 42.493 39.29 30.744 90.605 8.1899 135.56 11.824 29.899 7.5466 100.46-22.493 104.4 20.468-35.996 16.766-83.392-0.6151-120.4 19.237-46.972 11.878-30.793 75.751 15.463 66.362 49.312 4.7105 106.07 22.267 149.08-11.894 27.437-25.711 46.529-44.592 94.107-47.11 33.65 0.1669 67.11-21.278 62.566 25.722-0.08 67.897-3.684 135.83-3.922 203.77-28.89 7.1825-73.649-2.4338-108.02 2.6463-111.24 5.7931-222.61-1.486-333.84 4.752-84.667 6.2752-169.74-4.2199-254.11 7.4211-76.584 5.5346-228.35 5.5625-228.35 5.5625s-24.896 0.5257-33.912-0.9252c-1.1601-11.1-2.6903-34.32 2.0285-82.075 1.8558-52.968 0.5847-107.99 8.7869-159.59 39.623-4.3607 91.418-13.631 109 32.977 52.017 31.535 116.44 23.401 174.64 19.545 52.394-28.717-17.804-84.459-56.886-76.974-19.366 1.9103-86.01 2.2873-43.522-23.476 70.994-6.861 144.38 18.455 213.94-3.526 37.269-39.476-36.955-61.3-68.197-52.998-45.19 2.4187-90.476 2.0007-135.72 2.4437-13.435-42.354 62.401-19.117 87.958-23.576 47.786-0.11012 95.913 2.1836 143.47-2.3388 45.732-30.724-21.556-74.176-56.841-61.019-34.089-1.2361-75.932-2.965-105.4-1.3192-21.003 1.0281-51.624 5.3521-76.336-0.71261-14.796-40.431 62.606-25.932 88.347-28.636 32.983-3.8287 66.195 0.67892 96.576 0.25636 40.032 7.1524 21.385-41.794-6.6515-41.31-61.213-9.8631-123.58-11.778-185.43-7.577-11.075-37.11 60.002-19.351 84.761-23.67 25.121 2.9388 96.098 4.0019 58.794-36.445-37.15-14.962-81.69-8.9067-121.98-10.163-37.419 5.7947-95.306-6.2716-113.22 34.836-18.9 21.622-79.615 44.231-93.956 18.266-3.3327-61.66-5.3127-124.94-9.5492-185.64 71.834 2.5193 143.8-2.541 215.65 2.5389 104.45 2.5055 209.39 11.67 313.45-2.5522 91.45-7.5983 182.89-17.976 274.82-13.112 51.817-0.2279 106.89-0.08 157.91 1.8278 2.715 63.357 0.191 126.58 5.481 186.37z" stroke="#980101" fill="#d40000"/>
    <path id="path3113" stroke="#f44800" fill="none" d="m1587.4-543.18c24.69-4.3026-30.747 2.5914 0 0z"/>
    <text id="text3234" style="text-anchor:middle;text-align:center" font-family="LMRoman10" xml:space="preserve" font-size="72px" line-height="100%" stroke="#000000" y="576.1319" x="1079.6344" stroke-width="4" fill="none">
      <tspan id="tspan3236" font-size="120px" stroke="#000000" y="576.1319" x="1079.6344" font-family="LMRoman10">
        <tspan id="tspan3240" stroke="#d40000" fill="#d40000">responsabilidad</tspan>
        <tspan id="tspan3242" fill="#000000">social</tspan>
      </tspan>
    </text>
  </g>
  <metadata>
    <rdf:RDF>
      <cc:Work>
        <dc:format>image/svg+xml</dc:format>
        <dc:type rdf:resource="http://purl.org/dc/dcmitype/StillImage"/>
        <cc:license rdf:resource="http://creativecommons.org/licenses/publicdomain/"/>
        <dc:publisher>
          <cc:Agent rdf:about="http://openclipart.org/">
            <dc:title>Openclipart</dc:title>
          </cc:Agent>
        </dc:publisher>
        <dc:title>Responsabilidad Social, logotipo</dc:title>
        <dc:date>2010-11-24T21:44:32</dc:date>
        <dc:description>Logotipo creado para indicar la responsabilidad social de las organizaciones.</dc:description>
        <dc:source>http://openclipart.org/detail/98197/responsabilidad-social-logotipo-by-celiapgt</dc:source>
        <dc:creator>
          <cc:Agent>
            <dc:title>celiapgt</dc:title>
          </cc:Agent>
        </dc:creator>
        <dc:subject>
          <rdf:Bag>
            <rdf:li>clip art</rdf:li>
            <rdf:li>clipart</rdf:li>
            <rdf:li>logo</rdf:li>
            <rdf:li>logotipo</rdf:li>
            <rdf:li>responsabilidad social</rdf:li>
            <rdf:li>social responsability</rdf:li>
          </rdf:Bag>
        </dc:subject>
      </cc:Work>
      <cc:License rdf:about="http://creativecommons.org/licenses/publicdomain/">
        <cc:permits rdf:resource="http://creativecommons.org/ns#Reproduction"/>
        <cc:permits rdf:resource="http://creativecommons.org/ns#Distribution"/>
        <cc:permits rdf:resource="http://creativecommons.org/ns#DerivativeWorks"/>
      </cc:License>
    </rdf:RDF>
  </metadata>
</svg>
